<svg height="512pt" viewBox="0 -64 512 512" width="512pt" xmlns="http://www.w3.org/2000/svg"><path d="m426.667969 202.667969c0-7.511719 3.5625-16.429688 7.679687-26.730469 6.078125-15.277344 13.652344-34.242188 13.652344-58.605469 0-46.738281-37.972656-74.664062-74.667969-74.664062-16.554687 0-58.066406 4.96875-102.035156 10.238281-45.546875 5.441406-92.671875 11.09375-111.296875 11.09375-32.0625 0-53.332031-22.761719-53.332031-32 0-5.886719-4.78125-10.667969-10.667969-10.667969s-10.667969 4.78125-10.667969 10.667969v149.332031c0 5.441407 4.097657 10.027344 9.515625 10.605469 5.3125.511719 10.410156-3.007812 11.5625-8.34375 5.953125-27.371094 67.753906-41.214844 132.289063-29.589844 40.320312 7.253906 85.824219 26.753906 81.386719 57.792969-1.964844 13.738281-9.601563 47.765625-38.144532 67.390625-3.863281 2.648438-5.527344 7.488281-4.140625 11.96875 1.386719 4.460938 5.527344 7.511719 10.199219 7.511719h149.332031c4.074219 0 7.808594-2.328125 9.601563-5.996094 1.769531-3.667969 1.324218-8.042969-1.214844-11.265625-7.488281-9.511719-19.050781-57.363281-19.050781-78.738281zm0 0" fill="#ffc107"/><path d="m480 298.667969h-448c-17.644531 0-32 14.355469-32 32v21.332031c0 17.644531 14.355469 32 32 32h448c17.644531 0 32-14.355469 32-32v-21.332031c0-17.644531-14.355469-32-32-32zm0 0" fill="#455a64"/><path d="m74.667969 0c-17.644531 0-32 14.355469-32 32v149.332031c0 17.644531 14.355469 32 32 32 17.640625 0 32-14.355469 32-32v-149.332031c0-17.644531-14.359375-32-32-32zm0 0" fill="#ffa000"/><path d="m437.332031 298.667969c-3.132812 0-6.292969-1.386719-8.402343-4.074219-11.925782-15.210938-23.597657-69.207031-23.597657-91.925781 0-11.605469 4.460938-22.804688 9.195313-34.667969 5.675781-14.25 12.140625-30.421875 12.140625-50.667969 0-34.644531-27.480469-53.332031-53.335938-53.332031-15.292969 0-58.109375 5.121094-99.496093 10.089844-46.1875 5.527344-93.933594 11.242187-113.835938 11.242187-41.34375 0-74.667969-29.160156-74.667969-53.332031 0-5.886719 4.78125-10.667969 10.667969-10.667969s10.667969 4.78125 10.667969 10.667969c0 9.238281 21.246093 32 53.332031 32 18.625 0 65.726562-5.652344 111.296875-11.113281 43.945313-5.25 85.480469-10.21875 102.035156-10.21875 36.714844 0 74.667969 27.945312 74.667969 74.664062 0 24.34375-7.550781 43.328125-13.652344 58.582031-4.117187 10.324219-7.679687 19.242188-7.679687 26.753907 0 21.394531 11.582031 69.226562 19.070312 78.738281 3.628907 4.632812 2.835938 11.328125-1.8125 14.976562-1.941406 1.539063-4.289062 2.285157-6.59375 2.285157zm0 0"/><path d="m288 298.667969c-3.371094 0-6.71875-1.601563-8.789062-4.628907-3.328126-4.867187-2.113282-11.5 2.75-14.828124 28.546874-19.648438 36.183593-53.675782 38.144531-67.371094 4.4375-31.0625-41.066407-50.558594-81.386719-57.8125-64.445312-11.605469-126.335938 2.21875-132.285156 29.589844-1.261719 5.78125-6.808594 9.386718-12.695313 8.148437-5.757812-1.257813-9.386719-6.933594-8.148437-12.695313 9.75-44.753906 87.421875-58.558593 156.90625-46.035156 66.390625 11.96875 104.234375 43.304688 98.730468 81.8125-2.347656 16.511719-11.667968 57.515625-47.1875 81.964844-1.835937 1.257812-3.949218 1.855469-6.039062 1.855469zm0 0"/><path d="m458.667969 170.667969c-5.890625 0-10.667969-4.78125-10.667969-10.667969v-106.667969c0-5.886719 4.777344-10.664062 10.667969-10.664062 5.886719 0 10.664062 4.777343 10.664062 10.664062v106.667969c0 5.886719-4.777343 10.667969-10.664062 10.667969zm0 0"/><path d="m74.667969 213.332031c-17.644531 0-32-14.355469-32-32v-149.332031c0-17.644531 14.355469-32 32-32 17.640625 0 32 14.355469 32 32v149.332031c0 17.644531-14.359375 32-32 32zm0-192c-5.867188 0-10.667969 4.800781-10.667969 10.667969v149.332031c0 5.867188 4.800781 10.667969 10.667969 10.667969 5.867187 0 10.664062-4.800781 10.664062-10.667969v-149.332031c0-5.867188-4.796875-10.667969-10.664062-10.667969zm0 0"/><path d="m74.667969 277.332031c-5.890625 0-10.667969-4.777343-10.667969-10.664062v-64c0-5.890625 4.777344-10.667969 10.667969-10.667969 5.886719 0 10.664062 4.777344 10.664062 10.667969v64c0 5.886719-4.777343 10.664062-10.664062 10.664062zm0 0"/><path d="m458.667969 298.667969h-192c-5.890625 0-10.667969-4.78125-10.667969-10.667969s4.777344-10.667969 10.667969-10.667969h192c5.886719 0 10.664062 4.78125 10.664062 10.667969s-4.777343 10.667969-10.664062 10.667969zm0 0"/><path d="m480 384h-448c-17.644531 0-32-14.355469-32-32v-21.332031c0-17.644531 14.355469-32 32-32h448c17.644531 0 32 14.355469 32 32v21.332031c0 17.644531-14.355469 32-32 32zm-448-64c-5.867188 0-10.667969 4.800781-10.667969 10.667969v21.332031c0 5.867188 4.800781 10.667969 10.667969 10.667969h448c5.867188 0 10.667969-4.800781 10.667969-10.667969v-21.332031c0-5.867188-4.800781-10.667969-10.667969-10.667969zm0 0"/><path d="m373.332031 64c-5.886719 0-10.664062-4.777344-10.664062-10.667969v-42.664062c0-5.890625 4.777343-10.667969 10.664062-10.667969 5.890625 0 10.667969 4.777344 10.667969 10.667969v42.664062c0 5.890625-4.777344 10.667969-10.667969 10.667969zm0 0"/></svg>